<?xml version="1.0" encoding="UTF-8"?>
<svg xmlns="http://www.w3.org/2000/svg" xmlns:xlink="http://www.w3.org/1999/xlink" viewBox="0 0 1000 1000">
  <defs>
    <linearGradient id="uuid-cdb30d9b-d285-4ee8-aeff-3c32874a904b" x1="500" y1="0" x2="500" y2="1000" gradientUnits="userSpaceOnUse">
      <stop offset="0" stop-color="#ed2024"/>
      <stop offset=".07" stop-color="#dc1e21"/>
      <stop offset=".29" stop-color="#ab191b"/>
      <stop offset=".51" stop-color="#851515"/>
      <stop offset=".7" stop-color="#691212"/>
      <stop offset=".87" stop-color="#58100f"/>
      <stop offset="1" stop-color="#53100f"/>
    </linearGradient>
  </defs>
  <g style="isolation: isolate;">
    <g id="uuid-710eb33d-d4c9-40c6-9375-4475ebf55c41" data-name="Layer_1">
      <rect width="1000" height="1000" rx="100" ry="100" style="fill: url(#uuid-cdb30d9b-d285-4ee8-aeff-3c32874a904b); stroke: #231f20; stroke-miterlimit: 10; stroke-width: .99px;"/>
      <g>
        <g>
          <path d="M12.09,676.83l110.57-215.46L27.87,268.28h116.11l34.06,88.39,36.75-88.39h114.77l-96.14,193.09,108.56,215.46h-120.3l-44.3-109.66-45.3,109.66H12.09Z" style="fill: #fff;"/>
          <path d="M340.45,541.75h99.66c2.57,14.18,8.28,24.58,17.11,31.21,8.83,6.63,21.36,9.94,37.58,9.94s29.3-2.9,37.25-8.7c7.94-5.8,11.91-14.78,11.91-26.93s-3.33-21.08-9.98-26.24c-6.66-5.15-18.6-7.73-35.82-7.73h-53.19v-93.92h49.16c17.56,0,29.17-1.89,34.82-5.66,5.65-3.77,8.47-10.54,8.47-20.3s-3.72-17.77-11.16-22.93c-7.44-5.15-18.6-7.73-33.47-7.73-12.19,0-21.37,1.75-27.52,5.25-6.15,3.5-9.84,8.93-11.07,16.3h-104.7c1.79-40.14,13.98-69.52,36.58-88.12,22.59-18.6,57.66-27.9,105.2-27.9,51.45,0,89.01,8.89,112.67,26.66,23.66,17.77,35.49,45.9,35.49,84.39,0,21.73-3.58,39.46-10.74,53.17-7.16,13.72-17.79,22.98-31.88,27.76,16.67,5.34,29.14,15.75,37.42,31.21,8.28,15.47,12.42,35.91,12.42,61.32,0,45.3-12.39,78.91-37.16,100.83-24.78,21.92-62.56,32.87-113.34,32.87-53.36,0-92.31-11.46-116.86-34.39-24.55-22.93-37.5-59.71-38.84-110.36Z" style="fill: #fff;"/>
          <path d="M665.62,676.83c1.79-63.9,11.97-112.88,30.54-146.96,18.57-34.07,49.05-59.39,91.44-75.96,8.83-3.5,20.64-7.73,35.4-12.71,32.77-10.86,49.16-24.12,49.16-39.78,0-10.68-3.47-18.74-10.4-24.17-6.94-5.43-17.11-8.15-30.54-8.15-18.23,0-31.6,4.38-40.1,13.12-8.5,8.75-12.75,22.42-12.75,41.02v1.38h-103.86c1.34-52.3,14.4-91.43,39.18-117.4,24.78-25.97,61.44-38.95,109.98-38.95s87,10.96,112,32.87c25,21.92,37.5,54.51,37.5,97.79,0,33.15-6.27,59.16-18.79,78.04-12.53,18.88-33.56,33.66-63.09,44.34-10.96,3.87-26.12,8.66-45.47,14.36-40.94,11.97-66.05,25.23-75.34,39.78h197.48v101.38h-302.35Z" style="fill: #fff;"/>
        </g>
      </g>
    </g>
  </g>
</svg>